<svg width="307" height="65" viewBox="0 0 307 65" fill="none" xmlns="http://www.w3.org/2000/svg">
<path d="M16.2244 44.8491C13.0712 44.8491 10.0279 44.4642 7.09472 43.6942C4.19815 42.8875 1.83324 41.8609 -3.05176e-05 40.6143L3.57484 32.5846C5.29811 33.6845 7.27804 34.6012 9.51463 35.3345C11.7879 36.0311 14.0428 36.3794 16.2794 36.3794C17.7827 36.3794 18.9926 36.2511 19.9093 35.9945C20.8259 35.7011 21.4859 35.3345 21.8892 34.8945C22.3292 34.4178 22.5492 33.8679 22.5492 33.2446C22.5492 32.3646 22.1459 31.6679 21.3392 31.1546C20.5326 30.6413 19.4876 30.2197 18.2043 29.8897C16.921 29.5597 15.4911 29.2297 13.9145 28.8997C12.3745 28.5697 10.8163 28.1481 9.23964 27.6348C7.6997 27.1214 6.28808 26.4615 5.00479 25.6548C3.7215 24.8115 2.67654 23.7299 1.8699 22.4099C1.06326 21.0533 0.659946 19.3484 0.659946 17.2951C0.659946 14.9852 1.28326 12.8953 2.52988 11.0253C3.81317 9.15541 5.71977 7.65213 8.24968 6.5155C10.7796 5.37887 13.9328 4.81056 17.7093 4.81056C20.2393 4.81056 22.7142 5.10388 25.1341 5.69053C27.5907 6.24051 29.7722 7.06548 31.6788 8.16544L28.324 16.2502C26.4907 15.2602 24.6758 14.5269 22.8792 14.0502C21.0826 13.5369 19.341 13.2803 17.6543 13.2803C16.1511 13.2803 14.9411 13.4453 14.0245 13.7752C13.1078 14.0686 12.4479 14.4719 12.0445 14.9852C11.6412 15.4985 11.4396 16.0852 11.4396 16.7451C11.4396 17.5884 11.8246 18.2667 12.5945 18.7801C13.4012 19.2567 14.4461 19.66 15.7294 19.99C17.0494 20.2833 18.4793 20.595 20.0193 20.925C21.5959 21.255 23.1541 21.6766 24.6941 22.1899C26.2707 22.6666 27.7007 23.3266 28.9839 24.1699C30.2672 24.9765 31.2939 26.0581 32.0638 27.4148C32.8705 28.7347 33.2738 30.403 33.2738 32.4196C33.2738 34.6562 32.6321 36.7278 31.3489 38.6344C30.1022 40.5043 28.214 42.0076 25.6841 43.1442C23.1908 44.2808 20.0376 44.8491 16.2244 44.8491Z" fill="#233C67"/>
<path d="M48.321 18.5459H37.0235V46.4867H48.321V18.5459Z" fill="#27B4C8"/>
<path d="M42.8316 3.35407C39.2612 3.35407 36.3665 6.24854 36.3665 9.819C36.3665 13.3895 39.2612 16.2837 42.8316 16.2837C46.4016 16.2837 49.2958 13.3895 49.2958 9.819C49.2958 6.24854 46.4019 3.35407 42.8316 3.35407ZM42.8316 14.2463C40.3862 14.2463 38.4039 12.2642 38.4039 9.819C38.4039 7.37354 40.3862 5.39125 42.8316 5.39125C45.2766 5.39125 47.2586 7.37354 47.2586 9.819C47.2589 12.2642 45.2768 14.2463 42.8316 14.2463Z" fill="#233C67"/>
<path d="M42.8314 12.1135C44.0986 12.1135 45.1259 11.0862 45.1259 9.81901C45.1259 8.55181 44.0986 7.52454 42.8314 7.52454C41.5642 7.52454 40.5369 8.55181 40.5369 9.81901C40.5369 11.0862 41.5642 12.1135 42.8314 12.1135Z" fill="#27B4C8"/>
<path d="M90.823 14.3306C93.1329 14.3306 95.1861 14.8073 96.9827 15.7606C98.816 16.6772 100.246 18.1072 101.273 20.0504C102.336 21.9937 102.868 24.5053 102.868 27.5852V44.6346H92.4179V29.2901C92.4179 27.1635 92.0146 25.6236 91.2079 24.6703C90.4013 23.6803 89.3013 23.1853 87.9081 23.1853C86.9181 23.1853 86.0198 23.4236 85.2132 23.9003C84.4065 24.3769 83.7832 25.1103 83.3432 26.1002C82.9032 27.0535 82.6832 28.3001 82.6832 29.8401V44.6346H72.2336V29.2901C72.2336 27.1635 71.8303 25.6236 71.0237 24.6703C70.2537 23.6803 69.1537 23.1853 67.7238 23.1853C66.6971 23.1853 65.7805 23.4236 64.9739 23.9003C64.2039 24.3769 63.5806 25.1103 63.1039 26.1002C62.6639 27.0535 62.444 28.3001 62.444 29.8401V44.6346H51.9943V14.8256H61.949V23.1303L59.969 20.7654C61.069 18.6388 62.5723 17.0439 64.4789 15.9806C66.3855 14.8806 68.5121 14.3306 70.8587 14.3306C73.5352 14.3306 75.8818 15.0273 77.8984 16.4206C79.9517 17.7772 81.3266 19.9038 82.0233 22.8003L78.6134 22.0854C79.6767 19.6654 81.2716 17.7772 83.3982 16.4206C85.5615 15.0273 88.0364 14.3306 90.823 14.3306Z" fill="#233C67"/>
<path d="M234.555 44.9125L248.249 26.9281L248.029 32.8679L234.885 15.1035H246.654L254.024 25.6082L249.624 25.8282L257.434 15.1035H268.489L255.344 32.4829V26.7631L268.874 44.9125H256.939L249.239 33.6929L253.639 34.2979L245.884 44.9125H234.555Z" fill="#233C67"/>
<path d="M220.779 44.9125V15.1035H231.229V44.9125H220.779ZM226.004 11.8037C224.097 11.8037 222.557 11.272 221.384 10.2087C220.211 9.14543 219.624 7.82547 219.624 6.24886C219.624 4.67225 220.211 3.3523 221.384 2.289C222.557 1.22571 224.097 0.694061 226.004 0.694061C227.91 0.694061 229.45 1.20738 230.624 2.23401C231.797 3.22397 232.384 4.50726 232.384 6.08387C232.384 7.73381 231.797 9.10876 230.624 10.2087C229.487 11.272 227.947 11.8037 226.004 11.8037Z" fill="#233C67"/>
<path d="M201.899 14.6086C204.209 14.6086 206.299 15.0852 208.169 16.0385C210.039 16.9551 211.505 18.3851 212.568 20.3284C213.668 22.2716 214.218 24.7832 214.218 27.8631V44.9125H203.769V29.568C203.769 27.4414 203.329 25.9015 202.449 24.9482C201.606 23.9582 200.414 23.4633 198.874 23.4633C197.774 23.4633 196.766 23.7199 195.849 24.2332C194.932 24.7099 194.217 25.4615 193.704 26.4881C193.191 27.5148 192.934 28.8531 192.934 30.503V44.9125H182.485V15.1035H192.439V23.5732L190.514 21.0983C191.651 18.9351 193.209 17.3218 195.189 16.2585C197.169 15.1585 199.406 14.6086 201.899 14.6086Z" fill="#233C67"/>
<path d="M165.244 44.9125V15.1035H175.694V44.9125H165.244ZM170.469 11.8037C168.562 11.8037 167.022 11.272 165.849 10.2087C164.676 9.14543 164.089 7.82547 164.089 6.24886C164.089 4.67225 164.676 3.3523 165.849 2.289C167.022 1.22571 168.562 0.694061 170.469 0.694061C172.375 0.694061 173.915 1.20738 175.089 2.23401C176.262 3.22397 176.849 4.50726 176.849 6.08387C176.849 7.73381 176.262 9.10876 175.089 10.2087C173.952 11.272 172.412 11.8037 170.469 11.8037Z" fill="#233C67"/>
<path d="M148.003 44.9125V4.10394H158.453V44.9125H148.003Z" fill="#233C67"/>
<path d="M285.551 22.6852H303.425V30.8249H285.551V22.6852ZM286.321 37.8647H306.45V46.2794H275.541V7.78074H305.735V16.1954H286.321V37.8647Z" fill="#27B4C8"/>
<path d="M253.009 34.6198V26.5901H269.068V34.6198H253.009Z" fill="#27B4C8"/>
<path d="M143.572 12.1055C141.794 12.1055 140.353 10.6646 140.353 8.88721C140.353 8.56262 140.402 8.24971 140.492 7.95369C127.07 -1.21598 115.563 7.83497 115.563 7.83497C116.104 8.82314 115.1 9.71521 115.1 9.71521C108.074 15.977 108.218 24.0068 108.218 24.0068C108.122 34.9521 115.077 39.8515 115.077 39.8515C116.081 40.8074 115.531 41.8347 115.531 41.8347C127.84 50.0865 139.024 42.732 140.466 41.7113C140.395 41.4454 140.353 41.1672 140.353 40.8791C140.353 39.1014 141.794 37.6603 143.572 37.6603C145.349 37.6603 146.79 39.1014 146.79 40.8791C146.79 42.6558 145.349 44.0972 143.572 44.0972C143.106 44.0972 142.664 43.9961 142.265 43.818C126.763 55.0726 113.73 43.9223 113.73 43.9223C112.615 44.7183 111.548 44.0334 111.548 44.0334C102.052 34.8252 102.96 26.9382 102.96 26.9382C98.4992 26.6352 95.1373 23.0345 95.1373 23.0345L95.4736 22.5683L96.794 20.74C97.1765 19.9756 97.9893 20.374 97.9893 20.374C98.9931 21.5213 102.865 22.4772 102.865 22.4772C103.868 11.4834 111.54 5.72453 111.54 5.72453C112.591 4.83968 113.523 5.7958 113.523 5.7958C128.878 -5.05392 141.356 5.14241 142.287 5.93686C142.681 5.76501 143.115 5.66816 143.572 5.66816C145.349 5.66816 146.79 7.10981 146.79 8.88673C146.79 10.6646 145.349 12.1055 143.572 12.1055Z" fill="#27B4C8"/>
<path d="M43.1438 7.77041C43.1438 7.77041 52.6572 -1.46507 64.4625 0.201084C64.4625 0.201084 72.6915 0.514245 83.6631 10.34C83.6631 10.34 91.2325 17.8741 97.5171 20.8947C97.5171 20.8947 97.083 23.1351 97.083 23.3777C97.083 23.3777 96.0412 23.4989 91.8228 20.4437C91.8228 20.4437 85.7378 15.7912 82.9256 13.0048C82.9256 13.0048 73.9936 4.46319 65.5823 2.953C65.5823 2.953 56.0603 -0.0768227 44.7064 9.67993L43.1438 7.77041Z" fill="#27B4C8"/>
<path d="M43.6863 61.7736C43.6863 62.291 43.5907 62.7408 43.3999 63.1225C43.2088 63.5044 42.9417 63.8198 42.5986 64.0688C42.2553 64.3178 41.8468 64.5027 41.373 64.6235C40.899 64.7443 40.3819 64.8047 39.821 64.8047C39.3229 64.8047 38.8419 64.7758 38.3778 64.7176C37.9137 64.6594 37.4542 64.5629 37 64.4275V62.6653C37.2223 62.7427 37.4542 62.815 37.6963 62.8828C37.9382 62.9507 38.181 63.0098 38.4251 63.0606C38.6692 63.1113 38.912 63.1512 39.1538 63.1801C39.3957 63.2091 39.6299 63.2237 39.8574 63.2237C40.1957 63.2237 40.4834 63.1947 40.7203 63.1366C40.9572 63.0786 41.1505 62.9987 41.3005 62.8972C41.4503 62.7957 41.5589 62.6749 41.6268 62.5346C41.6943 62.3944 41.7283 62.2397 41.7283 62.0704C41.7283 61.8382 41.6617 61.6437 41.5287 61.4867C41.3956 61.3298 41.2205 61.1907 41.003 61.0696C40.7854 60.9488 40.5376 60.8401 40.2596 60.7434C39.9814 60.6466 39.6987 60.5429 39.411 60.4315C39.1234 60.3203 38.8405 60.1946 38.5625 60.0545C38.2842 59.9144 38.0367 59.7401 37.8191 59.5324C37.6015 59.3247 37.4263 59.0767 37.2933 58.789C37.1602 58.5014 37.0938 58.1546 37.0938 57.7484C37.0938 57.3761 37.1614 57.0231 37.2968 56.6897C37.432 56.356 37.6448 56.0649 37.935 55.8158C38.2251 55.5668 38.5974 55.3688 39.0519 55.2212C39.5061 55.0737 40.0551 55 40.698 55C40.8866 55 41.0834 55.0084 41.2891 55.0254C41.4946 55.0425 41.6976 55.0643 41.8983 55.0908C42.0988 55.1173 42.2924 55.1487 42.4785 55.1851C42.6644 55.2213 42.835 55.2589 42.9897 55.2975V56.9293C42.835 56.8714 42.6657 56.8181 42.482 56.7696C42.2981 56.7213 42.1085 56.679 41.9127 56.6426C41.7169 56.6062 41.5198 56.5785 41.3215 56.5592C41.1233 56.5399 40.9346 56.5302 40.7559 56.5302C40.4415 56.5302 40.1757 56.5557 39.9581 56.6065C39.7405 56.6572 39.5615 56.7273 39.4214 56.8169C39.2811 56.9065 39.1796 57.0164 39.117 57.1469C39.0541 57.2773 39.0226 57.4224 39.0226 57.582C39.0226 57.7803 39.089 57.9509 39.2222 58.0932C39.3551 58.2358 39.5316 58.364 39.7517 58.4776C39.9717 58.5912 40.2205 58.6977 40.4987 58.7967C40.7767 58.8957 41.0619 59.0024 41.3545 59.1158C41.6471 59.2294 41.932 59.3586 42.2102 59.5037C42.4882 59.6487 42.737 59.8252 42.9573 60.0332C43.1774 60.2411 43.3536 60.4864 43.4868 60.7694C43.6199 61.052 43.6863 61.387 43.6863 61.7736Z" fill="#27B4C8"/>
<path d="M53.0981 64.6378L52.9241 59.2785L52.8588 57.1391L52.4018 58.5894L51.3503 61.8166H50.2333L49.2833 58.5894L48.8845 57.1391L48.8338 59.235L48.6741 64.6378H47.1584L47.6226 55.1592H49.6388L50.4727 57.8498L50.8715 59.3654L51.2703 57.9369L52.1478 55.1592H54.2002L54.6715 64.6378H53.0981Z" fill="#27B4C8"/>
<path d="M63.5383 64.6378L63.0163 62.7666H59.7094L59.1727 64.6378H57.4033L60.2099 55.1592H62.7046L65.5112 64.6378H63.5383ZM61.3845 56.8999L60.1371 61.3094H62.6175L61.3845 56.8999Z" fill="#27B4C8"/>
<path d="M73.6302 64.6378L72.2957 61.5918C72.17 61.3017 71.9947 61.0831 71.77 60.9356C71.5452 60.788 71.2803 60.7143 70.9759 60.7143H70.635V64.6378H68.851V55.1592H71.614C72.1361 55.1592 72.6099 55.204 73.0354 55.2934C73.4607 55.383 73.8233 55.5315 74.1233 55.7395C74.4231 55.9474 74.6538 56.2182 74.8159 56.5516C74.9778 56.8853 75.0588 57.294 75.0588 57.7772C75.0588 58.1253 75.008 58.4347 74.9065 58.7055C74.805 58.9763 74.6625 59.2095 74.4785 59.4053C74.2946 59.6011 74.076 59.7595 73.8223 59.8803C73.5686 60.0011 73.2916 60.086 72.9921 60.134C73.2243 60.1823 73.4369 60.3142 73.6302 60.5294C73.8236 60.7445 74.0171 61.0551 74.2105 61.4613L75.7262 64.6378H73.6302ZM73.1879 57.9515C73.1879 57.4873 73.0403 57.1537 72.7455 56.9507C72.4507 56.7477 72.0081 56.6462 71.4185 56.6462H70.6352V59.3224H71.3605C71.636 59.3224 71.8863 59.2934 72.1111 59.2352C72.3359 59.1771 72.5282 59.0902 72.6876 58.9741C72.847 58.858 72.9705 58.7142 73.0574 58.5426C73.1443 58.3711 73.1879 58.1738 73.1879 57.9515Z" fill="#27B4C8"/>
<path d="M83.455 56.646V64.6378H81.6274V56.646H79.0312V55.1592H86.0512V56.646H83.455Z" fill="#27B4C8"/>
<path d="M90.3353 64.6378V55.1592H96.0428V56.6677H92.1485V59.0246H95.8616V60.4967H92.1485V63.1293H96.0428V64.6378H90.3353Z" fill="#27B4C8"/>
<path d="M105.258 64.6378L103.923 61.5918C103.797 61.3017 103.622 61.0831 103.397 60.9356C103.173 60.788 102.908 60.7143 102.603 60.7143H102.262V64.6378H100.478V55.1592H103.241C103.763 55.1592 104.237 55.204 104.663 55.2934C105.088 55.383 105.451 55.5315 105.751 55.7395C106.05 55.9474 106.281 56.2182 106.443 56.5516C106.605 56.8853 106.686 57.294 106.686 57.7772C106.686 58.1253 106.635 58.4347 106.534 58.7055C106.432 58.9763 106.29 59.2095 106.106 59.4053C105.922 59.6011 105.703 59.7595 105.45 59.8803C105.196 60.0011 104.919 60.086 104.619 60.134C104.852 60.1823 105.064 60.3142 105.258 60.5294C105.451 60.7445 105.645 61.0551 105.838 61.4613L107.354 64.6378H105.258ZM104.815 57.9515C104.815 57.4873 104.668 57.1537 104.373 56.9507C104.078 56.7477 103.635 56.6462 103.046 56.6462H102.263V59.3224H102.988C103.263 59.3224 103.514 59.2934 103.738 59.2352C103.963 59.1771 104.156 59.0902 104.315 58.9741C104.474 58.858 104.598 58.7142 104.685 58.5426C104.772 58.3711 104.815 58.1738 104.815 57.9515Z" fill="#27B4C8"/>
<path d="M127.908 64.2684C127.488 64.4378 127.08 64.5633 126.686 64.6455C126.292 64.7276 125.882 64.7687 125.457 64.7687C124.775 64.7687 124.172 64.6682 123.647 64.4677C123.123 64.2672 122.68 63.9684 122.32 63.5721C121.96 63.1758 121.687 62.6837 121.501 62.0963C121.315 61.5089 121.222 60.8262 121.222 60.0477C121.222 59.2498 121.323 58.5404 121.526 57.9191C121.729 57.298 122.019 56.7732 122.396 56.3455C122.774 55.9177 123.232 55.5912 123.771 55.3664C124.31 55.1417 124.915 55.0293 125.587 55.0293C125.805 55.0293 126.009 55.0342 126.2 55.0439C126.391 55.0538 126.579 55.0719 126.762 55.0984C126.946 55.1248 127.132 55.16 127.321 55.2036C127.51 55.2471 127.705 55.3026 127.908 55.3704V57.1398C127.497 56.9465 127.106 56.8089 126.733 56.7264C126.361 56.6442 126.023 56.6031 125.718 56.6031C125.269 56.6031 124.884 56.6841 124.565 56.846C124.246 57.0081 123.984 57.2351 123.778 57.5277C123.572 57.8203 123.422 58.1683 123.325 58.5721C123.228 58.9758 123.18 59.4194 123.18 59.9028C123.18 60.4153 123.229 60.8734 123.329 61.2772C123.428 61.6809 123.581 62.023 123.789 62.3035C123.997 62.5839 124.263 62.7978 124.587 62.9453C124.911 63.0929 125.295 63.1667 125.74 63.1667C125.9 63.1667 126.072 63.1511 126.258 63.1196C126.444 63.0882 126.633 63.0471 126.824 62.9963C127.015 62.9456 127.204 62.8852 127.39 62.8151C127.576 62.7451 127.749 62.6738 127.908 62.6013V64.2684Z" fill="#27B4C8"/>
<path d="M137.334 64.6378L136.812 62.7666H133.505L132.969 64.6378H131.199L134.006 55.1592H136.5L139.307 64.6378H137.334ZM135.18 56.8999L133.933 61.3094H136.413L135.18 56.8999Z" fill="#27B4C8"/>
<path d="M147.427 64.6378L146.092 61.5918C145.967 61.3017 145.791 61.0831 145.567 60.9356C145.342 60.788 145.077 60.7143 144.773 60.7143H144.432V64.6378H142.648V55.1592H145.411C145.933 55.1592 146.407 55.204 146.832 55.2934C147.257 55.383 147.62 55.5315 147.92 55.7395C148.22 55.9474 148.451 56.2182 148.613 56.5516C148.775 56.8853 148.855 57.294 148.855 57.7772C148.855 58.1253 148.805 58.4347 148.703 58.7055C148.602 58.9763 148.459 59.2095 148.275 59.4053C148.091 59.6011 147.873 59.7595 147.619 59.8803C147.365 60.0011 147.088 60.086 146.789 60.134C147.021 60.1823 147.234 60.3142 147.427 60.5294C147.62 60.7445 147.814 61.0551 148.007 61.4613L149.523 64.6378H147.427ZM146.985 57.9515C146.985 57.4873 146.837 57.1537 146.542 56.9507C146.247 56.7477 145.805 56.6462 145.215 56.6462H144.432V59.3224H145.157C145.433 59.3224 145.683 59.2934 145.908 59.2352C146.133 59.1771 146.325 59.0902 146.484 58.9741C146.644 58.858 146.767 58.7142 146.854 58.5426C146.941 58.3711 146.985 58.1738 146.985 57.9515Z" fill="#27B4C8"/>
<path d="M153.589 64.6378V55.1592H159.296V56.6677H155.402V59.0246H159.115V60.4967H155.402V63.1293H159.296V64.6378H153.589Z" fill="#27B4C8"/>
<path d="M180.735 61.7737C180.735 62.291 180.64 62.7408 180.449 63.1225C180.258 63.5045 179.99 63.8198 179.647 64.0688C179.304 64.3179 178.895 64.5028 178.422 64.6236C177.948 64.7444 177.431 64.8048 176.87 64.8048C176.372 64.8048 175.891 64.7758 175.426 64.7176C174.962 64.6595 174.503 64.5629 174.049 64.4275V62.6653C174.271 62.7428 174.503 62.8151 174.745 62.8829C174.987 62.9507 175.23 63.0099 175.474 63.0606C175.718 63.1114 175.961 63.1512 176.202 63.1802C176.444 63.2091 176.679 63.2237 176.906 63.2237C177.244 63.2237 177.532 63.1948 177.769 63.1366C178.006 63.0784 178.199 62.9987 178.349 62.8972C178.499 62.7958 178.608 62.675 178.675 62.5346C178.743 62.3945 178.777 62.2398 178.777 62.0705C178.777 61.8383 178.711 61.6437 178.578 61.4868C178.444 61.3298 178.269 61.1907 178.052 61.0697C177.834 60.9489 177.586 60.8402 177.308 60.7434C177.03 60.6466 176.747 60.5429 176.46 60.4315C176.172 60.3204 175.889 60.1946 175.611 60.0545C175.333 59.9144 175.085 59.7401 174.868 59.5324C174.65 59.3248 174.475 59.0767 174.342 58.7891C174.209 58.5014 174.142 58.1546 174.142 57.7484C174.142 57.3761 174.21 57.0231 174.345 56.6897C174.481 56.3563 174.693 56.0649 174.984 55.8159C175.274 55.5669 175.646 55.3688 176.1 55.2213C176.555 55.0738 177.104 55 177.747 55C177.935 55 178.132 55.0084 178.338 55.0255C178.543 55.0426 178.746 55.0644 178.947 55.0908C179.148 55.1173 179.341 55.1488 179.527 55.1852C179.713 55.2213 179.884 55.2589 180.038 55.2975V56.9293C179.884 56.8714 179.714 56.8182 179.531 56.7697C179.347 56.7214 179.157 56.6791 178.962 56.6427C178.766 56.6063 178.568 56.5786 178.37 56.5592C178.172 56.5399 177.983 56.5303 177.805 56.5303C177.49 56.5303 177.224 56.5558 177.007 56.6065C176.789 56.6573 176.61 56.7273 176.47 56.8169C176.33 56.9065 176.228 57.0165 176.166 57.1469C176.103 57.2774 176.071 57.4224 176.071 57.5821C176.071 57.7804 176.138 57.9509 176.271 58.0933C176.404 58.2358 176.58 58.3641 176.801 58.4777C177.021 58.5913 177.269 58.6977 177.548 58.7968C177.826 58.8958 178.111 59.0025 178.403 59.1158C178.696 59.2295 178.981 59.3587 179.259 59.5037C179.537 59.6488 179.786 59.8253 180.006 60.0332C180.226 60.2412 180.402 60.4865 180.536 60.7694C180.669 61.0521 180.735 61.387 180.735 61.7737Z" fill="#27B4C8"/>
<path d="M184.969 56.617V55.1592H190.959V56.617H188.871V63.1657H190.959V64.6378H184.969V63.1657H187.058V56.617H184.969Z" fill="#27B4C8"/>
<path d="M200.69 64.6378L200.516 59.2785L200.45 57.1391L199.993 58.5894L198.942 61.8166H197.825L196.875 58.5894L196.476 57.1391L196.425 59.235L196.266 64.6378H194.75L195.214 55.1592H197.23L198.064 57.8498L198.463 59.3654L198.862 57.9369L199.739 55.1592H201.792L202.263 64.6378H200.69Z" fill="#27B4C8"/>
<path d="M212.522 58.1763C212.522 58.6694 212.44 59.1251 212.276 59.5432C212.111 59.9613 211.867 60.3227 211.543 60.6274C211.219 60.9321 210.816 61.169 210.332 61.3381C209.848 61.5074 209.288 61.5918 208.649 61.5918H207.743V64.6378H205.944V55.1592H208.722C209.336 55.1592 209.879 55.2258 210.35 55.3588C210.821 55.4919 211.218 55.6863 211.539 55.9425C211.861 56.1989 212.105 56.5143 212.272 56.8888C212.439 57.2636 212.522 57.6928 212.522 58.1763ZM210.651 58.2995C210.651 58.0483 210.611 57.8198 210.532 57.6141C210.452 57.4086 210.331 57.2334 210.169 57.0883C210.007 56.9433 209.803 56.8321 209.556 56.7546C209.31 56.6774 209.017 56.6385 208.679 56.6385H207.743V60.1123H208.737C209.046 60.1123 209.319 60.0699 209.556 59.9853C209.793 59.9009 209.993 59.7786 210.155 59.6192C210.317 59.4595 210.44 59.2686 210.524 59.0464C210.609 58.8243 210.651 58.575 210.651 58.2995Z" fill="#27B4C8"/>
<path d="M216.937 64.6378V55.1592H218.75V63.1075H222.753V64.6378H216.937Z" fill="#27B4C8"/>
<path d="M227.138 56.617V55.1592H233.128V56.617H231.039V63.1657H233.128V64.6378H227.138V63.1657H229.226V56.617H227.138Z" fill="#27B4C8"/>
<path d="M239.74 56.6677V59.2929H243.322V60.7578H239.74V64.6378H237.927V55.1592H243.525V56.6677H239.74Z" fill="#27B4C8"/>
<path d="M248.223 56.617V55.1592H254.213V56.617H252.124V63.1657H254.213V64.6378H248.223V63.1657H250.312V56.617H248.223Z" fill="#27B4C8"/>
<path d="M259.011 64.6378V55.1592H264.719V56.6677H260.825V59.0246H264.538V60.4967H260.825V63.1293H264.719V64.6378H259.011Z" fill="#27B4C8"/>
<path d="M276 59.7795C276 60.5145 275.91 61.1818 275.728 61.7811C275.547 62.3807 275.264 62.8918 274.88 63.3149C274.495 63.7379 274.003 64.0644 273.404 64.2939C272.804 64.5236 272.086 64.6385 271.25 64.6385H268.842V55.1599H271.649C272.374 55.1599 273.008 55.2505 273.552 55.432C274.096 55.6134 274.549 55.8924 274.912 56.2697C275.274 56.6469 275.547 57.1254 275.728 57.7056C275.909 58.2859 276 58.977 276 59.7795ZM274.085 59.8954C274.085 59.383 274.044 58.926 273.962 58.5247C273.88 58.1235 273.741 57.7838 273.545 57.5059C273.349 57.2279 273.087 57.0162 272.758 56.8714C272.429 56.7266 272.021 56.6538 271.532 56.6538H270.626V63.1446H271.409C272.284 63.1446 272.949 62.8834 273.404 62.3614C273.858 61.8393 274.085 61.0172 274.085 59.8954Z" fill="#27B4C8"/>
</svg>
